<!-- Official Google G logo SVG from Google Brand Guidelines -->
<svg xmlns="http://www.w3.org/2000/svg" width="18" height="18" viewBox="0 0 18 18">
  <g fill="none" fill-rule="evenodd">
    <path d="M17.64 9.2045c0-.638-.0573-1.2518-.1636-1.8373H9v3.4818h4.8445c-.2082 1.1236-.8345 2.0764-1.7764 2.7191v2.2582h2.8736C16.7282 14.0964 17.64 11.8782 17.64 9.2045z" fill="#4285F4"/>
    <path d="M9 18c2.43 0 4.4673-.8064 5.9564-2.1873l-2.8736-2.2582c-.7973.5345-1.8136.8491-3.0827.8491-2.3718 0-4.3818-1.6018-5.0982-3.7573H.9391v2.3064C2.4227 16.5682 5.4818 18 9 18z" fill="#34A853"/>
    <path d="M3.9018 10.6464c-.1818-.5345-.2864-1.1045-.2864-1.6464 0-.5418.1045-1.1118.2864-1.6464V5.0473H.9391C.3409 6.2364 0 7.5745 0 9c0 1.4255.3409 2.7636.9391 3.9527l2.9627-2.3063z" fill="#FBBC05"/>
    <path d="M9 3.5791c1.3218 0 2.5018.4545 3.4327 1.3455l2.5745-2.5745C13.4636.8064 11.4264 0 9 0 5.4818 0 2.4227 1.4318.9391 4.0473l2.9627 2.3064C4.6182 5.1809 6.6282 3.5791 9 3.5791z" fill="#EA4335"/>
  </g>
</svg>
